<svg xmlns="http://www.w3.org/2000/svg" width="102.315" height="57.785" viewBox="0 0 102.315 57.785">
    <defs>
        <style>
            .cls-1 {
            fill: #fff;
            }

            .cls-2 {
            fill: #7b3ff2;
            }
        </style>
    </defs>
    <g id="Group_5881" data-name="Group 5881" transform="translate(-114 -18)">
        <path id="Path_7997" data-name="Path 7997" class="cls-1"
              d="M966.435,2310.851a69.013,69.013,0,0,0-7.642-4.435c-.795-.407-1.074-.62-.273-1.34,2.481-2.229,4.822-4.612,7.409-6.729a19.025,19.025,0,0,0,1.79-1.69,1,1,0,0,0-.031-1.444.91.91,0,0,0-1.4-.08,9.447,9.447,0,0,0-.883.752c-2.487,2.368-4.964,4.747-7.459,7.1-.239.229-.379.681-.9.554.464-3.854,1.1-7.658,1.881-11.44a107.743,107.743,0,0,1,3.1-12.195c.237-.712.406-1.48-.264-2.015a2.022,2.022,0,0,0-2.069-.032,2.935,2.935,0,0,0-1.349,1.055,8.178,8.178,0,0,0-1.313,2.882,116.557,116.557,0,0,0-3.7,26.481,4.438,4.438,0,0,1-2.633,4.069c-1.486.864-2.6.237-2.658-1.494-.056-1.785.015-3.579.127-5.363a17.319,17.319,0,0,0-.206-4.477c-.429-2.169-1.809-2.68-3.54-1.32a20.809,20.809,0,0,0-1.9,1.786c-1.457,1.473-2.6,3.2-4,4.8a10.175,10.175,0,0,1,.676-3.834,17.907,17.907,0,0,0,1.3-4.728c.031-.832.368-1.884-.72-2.271a2.418,2.418,0,0,0-2.772,1.086,3.521,3.521,0,0,0-.629,1.6c-.535,2.795-1.111,5.582-1.665,8.374a49.9,49.9,0,0,0-1.186,9.036c-.008.6.027,1.212.664,1.48.685.286,1.2-.11,1.661-.578a6.514,6.514,0,0,0,1.132-2.009,43.439,43.439,0,0,1,6.4-10.476c.424-.5.926-1.357,1.557-1.122.791.3.429,1.284.387,1.958a27.527,27.527,0,0,0,.037,6.937c.618,3.176,2.687,4.16,5.532,2.614.778-.422,1.5-.957,2.383-1.53,0,.87-.042,1.549.008,2.221a22.9,22.9,0,0,0,.512,4.453,1.03,1.03,0,0,0,1.009.87,1.061,1.061,0,0,0,1.155-.884,5.951,5.951,0,0,0,.156-1.138c.208-2.745.429-5.49.6-8.237.073-1.151.533-1.288,1.471-.777,2.333,1.272,4.67,2.533,7.038,3.74.851.433,2.019,1.436,2.7.362C968.687,2312.223,967.307,2311.455,966.435,2310.851Z"
              transform="translate(-768.322 -2257.021)"/>
        <path id="Path_7998" data-name="Path 7998" class="cls-1"
              d="M937.069,2287.6a5.176,5.176,0,0,0-5.586,1.432,14.2,14.2,0,0,0-4.279,12.522c.508,3.837,3.6,5.3,7.059,3.521a6.89,6.89,0,0,0,1.1-.691c3.378-2.622,4.414-6.291,4.522-10.341a12.031,12.031,0,0,0-.017-1.879C939.575,2290.26,939.1,2288.325,937.069,2287.6Zm-1.921,14.666c-.849.838-1.852,1.54-3.1,1.115-1.278-.437-1.6-1.679-1.644-2.832a12.968,12.968,0,0,1,2.743-8.774,2.66,2.66,0,0,1,3-1.237c1.263.423,1.588,1.586,1.738,2.774.067.524.056,1.058.075,1.434C937.9,2297.695,937.2,2300.244,935.148,2302.267Z"
              transform="translate(-775.319 -2246.531)"/>
        <path id="Path_7996" data-name="Path 7996" class="cls-1"
              d="M956.291,2288.1c-4.2,2.417-6.945,10.366-5.138,14.9a4.148,4.148,0,0,0,5.513,2.587,7.339,7.339,0,0,0,2.533-1.367c3.176-2.654,4.166-6.246,4.358-10.173a11.456,11.456,0,0,0-.293-2.885C962.466,2287.588,959.471,2286.267,956.291,2288.1Zm5.24,6.883a10.2,10.2,0,0,1-2.741,7.249c-.872.88-1.925,1.64-3.219,1.147s-1.559-1.775-1.6-3.008a13.282,13.282,0,0,1,2.339-8.054c.774-1.141,1.8-2.229,3.336-1.771,1.609.479,1.769,2,1.879,3.423C961.552,2294.3,961.531,2294.641,961.531,2294.979Z"
              transform="translate(-749.876 -2246.548)"/>
        <path id="Path_7999" data-name="Path 7999" class="cls-1"
              d="M924.815,2288.717c-3.538,2.785-5.7,9.363-4.475,13.653.866,3.046,3.409,4.248,6.335,2.995a8.923,8.923,0,0,0,3.848-3.195,15.62,15.62,0,0,0,2.493-8.51c-.054-.414-.135-1.132-.246-1.846C932.074,2287.337,928.388,2285.906,924.815,2288.717Zm3.625,13.278a5.36,5.36,0,0,1-.753.672,2.641,2.641,0,0,1-2.8.689,2.731,2.731,0,0,1-1.444-2.506,12.31,12.31,0,0,1-.008-1.3,13.113,13.113,0,0,1,2.61-7.664,2.873,2.873,0,0,1,2.972-1.375c1.2.281,1.6,1.334,1.781,2.412A10.869,10.869,0,0,1,928.44,2301.995Z"
              transform="translate(-782.95 -2246.552)"/>
        <path id="Path_8000" data-name="Path 8000" class="cls-1"
              d="M928.876,2284.53c-.514-5.384-3.792-7.109-8.339-4.156a18.554,18.554,0,0,0-8.248,11.971,9.44,9.44,0,0,0,.2,5.7c.323.8.911,1.359,1.8,1.049.962-.337.63-1.147.408-1.834a7.007,7.007,0,0,1-.608-2.807,15.233,15.233,0,0,1,5.773-10.958c1.082-.876,2.3-1.946,3.76-1.24,1.447.7,1.395,2.289,1.463,3.7.258,5.234-.995,10.252-2.168,15.286a4.573,4.573,0,0,1-1.517,2.508,39.4,39.4,0,0,0-10.037,13.854,13.962,13.962,0,0,0-.822,8.788c.485,2.152,2.244,2.914,4.239,1.986a7.045,7.045,0,0,0,1.883-1.336,18.375,18.375,0,0,0,3.478-4.785,61.2,61.2,0,0,0,5.111-14.268c.452-1.846.573-3.809,2.749-4.683a1.4,1.4,0,0,0,.822-1.7c-.3-.887-1.09-.133-1.761-.37A46.485,46.485,0,0,0,928.876,2284.53Zm-13.563,38.652c-.481.874-.941,2.352-2.135,1.977s-.668-1.837-.622-2.83a14.906,14.906,0,0,1,1.757-5.621,32.474,32.474,0,0,1,7.168-10.192C919.842,2312.266,918.189,2317.958,915.313,2323.181Z"
              transform="translate(-793.564 -2255.559)"/>
        <g id="Group_4416" data-name="Group 4416" transform="translate(114 18)">
            <path id="Path_7654" data-name="Path 7654" class="cls-2"
                  d="M913.156,2302.382A14.906,14.906,0,0,0,911.4,2308c-.046.993-.562,2.46.622,2.83s1.655-1.1,2.135-1.977c2.876-5.224,4.529-10.916,6.167-16.666A32.474,32.474,0,0,0,913.156,2302.382Z"
                  transform="translate(-906.408 -2259.234)"/>
            <path id="Path_7655" data-name="Path 7655" class="cls-2"
                  d="M1010.734,2302c-1.317-5.929-7.4-7.005-11.7-3.7a14.662,14.662,0,0,0-5.039,7.438c-.327,1.034-.146,2.691-1.026,2.956-.749.223-1.873-.949-2.88-1.393-1.113-.493-1.065-.935-.2-1.683,2.11-1.84,4.219-3.688,6.223-5.645a3.707,3.707,0,0,0-4.893-5.567c-1.382.936-2.322,2.37-3.854,3.4.171-.939.306-1.69.445-2.442.874-4.726,2.127-9.359,3.455-13.975.832-2.9-.989-5.1-3.99-5.036-2.676.059-4.784,1.671-5.711,4.709a101.6,101.6,0,0,0-3.771,20.823,10.722,10.722,0,0,0-.41,1.873c-.037.9.075,1.8-.01,2.333,0-.558,0-1.471,0-2.385-.027-.321.1-.662-.121-.957-.233-3.58-2.685-6.462-7.174-4.441-1.478-3.728-1.973-4.282-4.173-4.254-3.047.037-4.679,1.873-5.553,4.7a7.245,7.245,0,0,0-7.193-2.029c-2.7.616-4.385,2.6-6.152,4.616-.221-.472-.37-.818-.537-1.153a6.48,6.48,0,0,0-7.2-3.561,9.648,9.648,0,0,0-6.1,3.794c-.4.512-.618,1.27-1.521,1.519.171-.781.331-1.426.452-2.077.989-5.243,1.653-10.5.1-15.744-.768-2.585-2.233-4.564-5.218-4.943a9.014,9.014,0,0,0-5.913,1.365,21.1,21.1,0,0,0-9.642,12.545,13.72,13.72,0,0,0-.129,8.524,4.2,4.2,0,0,0,5.265,2.852c1.9-.568,2.853-2.658,2-5.026-1.538-4.288,2.05-9.64,4.732-11.426.389-.258.485-.077.554.256a12,12,0,0,1,0,3.455,61.384,61.384,0,0,1-1.53,9.1c-.368,1.35-.287,2.865-1.538,3.938a36.337,36.337,0,0,0-5.908,6.55c-3.486,4.9-6.337,10.016-5.913,16.372.214,3.215,1.619,5.588,4.16,6.229,3.463.872,5.829-.963,7.892-3.355,2.724-3.159,4.271-6.961,5.7-10.816.995-2.685,1.69-5.465,2.51-8.571.339,3.74.912,7.164,4.468,8.525,4.564,1.744,8.023-.548,10.9-3.969,1.074,1.927,2.219,3.61,4.431,4.218a8.376,8.376,0,0,0,7.488-1.594c.749-.548,1.009-.66,1.311.4a3.448,3.448,0,0,0,4.039,2.256,5.357,5.357,0,0,0,3.761-3.3,40.588,40.588,0,0,1,3.426-6.452,13.272,13.272,0,0,0,.691,3.767,5.3,5.3,0,0,0,6.266,3.863c1.243-.214,1.438.017,1.559,1.174.2,1.862.733,3.654,2.928,4.171,2.716.641,4.737-1.126,4.872-4.2.085-1.9.223-3.792.339-5.733a5.291,5.291,0,0,1,.556.15c2.778,1.18,5.07,3.623,8.447,3.255.092-.01.221.168.306.279,2.716,3.538,8.373,2.459,11.034-.021C1010.775,2313.564,1012.088,2308.1,1010.734,2302Zm-80.551,2.4a1.4,1.4,0,0,1-.822,1.7c-2.177.874-2.3,2.837-2.749,4.683a61.2,61.2,0,0,1-5.111,14.268,18.373,18.373,0,0,1-3.478,4.785,7.034,7.034,0,0,1-1.883,1.336c-2,.928-3.754.166-4.239-1.986a13.964,13.964,0,0,1,.822-8.788,39.406,39.406,0,0,1,10.037-13.854,4.572,4.572,0,0,0,1.517-2.508c1.174-5.034,2.427-10.052,2.168-15.286-.068-1.407-.016-3-1.463-3.7-1.465-.705-2.678.364-3.761,1.24a15.233,15.233,0,0,0-5.773,10.958,7.01,7.01,0,0,0,.608,2.807c.223.687.554,1.5-.408,1.834-.887.31-1.476-.252-1.8-1.049a9.44,9.44,0,0,1-.2-5.7,18.554,18.554,0,0,1,8.248-11.971c4.547-2.953,7.825-1.227,8.339,4.156a46.487,46.487,0,0,1-1.813,16.7C929.092,2304.268,929.883,2303.514,930.182,2304.4Zm12.314,9.573a8.919,8.919,0,0,1-3.848,3.195c-2.926,1.253-5.469.052-6.335-2.995-1.222-4.289.937-10.868,4.475-13.653,3.573-2.812,7.259-1.38,7.956,3.1.11.714.192,1.432.246,1.846A15.619,15.619,0,0,1,942.5,2313.974Zm17-8.106c-.108,4.05-1.145,7.719-4.522,10.341a6.927,6.927,0,0,1-1.1.691c-3.461,1.775-6.552.316-7.059-3.521a14.2,14.2,0,0,1,4.279-12.522,5.176,5.176,0,0,1,5.586-1.432c2.035.724,2.506,2.66,2.8,4.564A12.032,12.032,0,0,1,959.493,2305.867Zm35.036,8.891c-.678,1.074-1.846.071-2.7-.362-2.368-1.208-4.705-2.469-7.038-3.74-.939-.511-1.4-.375-1.471.777-.17,2.747-.391,5.492-.6,8.237a5.951,5.951,0,0,1-.156,1.139,1.061,1.061,0,0,1-1.155.884,1.03,1.03,0,0,1-1.009-.87,22.9,22.9,0,0,1-.512-4.453c-.05-.672-.008-1.351-.008-2.221-.885.573-1.6,1.108-2.383,1.53-2.845,1.546-4.914.562-5.532-2.614a27.529,27.529,0,0,1-.037-6.937c.042-.674.4-1.662-.387-1.958-.631-.235-1.132.625-1.557,1.122a43.434,43.434,0,0,0-6.4,10.476,6.515,6.515,0,0,1-1.132,2.009c-.46.468-.976.864-1.661.578-.637-.268-.672-.878-.664-1.48a49.9,49.9,0,0,1,1.186-9.036c.554-2.793,1.13-5.58,1.665-8.374a3.522,3.522,0,0,1,.628-1.6,2.418,2.418,0,0,1,2.772-1.086c1.088.387.751,1.439.72,2.271a17.912,17.912,0,0,1-1.3,4.728,10.176,10.176,0,0,0-.676,3.834c1.4-1.593,2.547-3.322,4-4.8a20.809,20.809,0,0,1,1.9-1.786c1.732-1.361,3.111-.849,3.54,1.32a17.322,17.322,0,0,1,.206,4.477c-.112,1.783-.183,3.577-.127,5.363.056,1.732,1.172,2.358,2.658,1.494a4.438,4.438,0,0,0,2.633-4.069,116.555,116.555,0,0,1,3.7-26.481,8.177,8.177,0,0,1,1.313-2.882,2.936,2.936,0,0,1,1.349-1.055,2.022,2.022,0,0,1,2.069.031c.67.534.5,1.3.264,2.015a107.761,107.761,0,0,0-3.1,12.2c-.783,3.782-1.417,7.586-1.881,11.44.518.127.658-.325.9-.554,2.5-2.358,4.972-4.737,7.459-7.1a9.435,9.435,0,0,1,.882-.752.91.91,0,0,1,1.4.08,1,1,0,0,1,.031,1.444,18.99,18.99,0,0,1-1.79,1.69c-2.587,2.117-4.928,4.5-7.409,6.729-.8.72-.522.932.273,1.339a69.013,69.013,0,0,1,7.642,4.435C993.907,2312.79,995.287,2313.558,994.53,2314.759Zm14.073-8.912c-.191,3.927-1.182,7.52-4.358,10.173a7.34,7.34,0,0,1-2.533,1.367,4.148,4.148,0,0,1-5.513-2.587c-1.806-4.531.935-12.481,5.138-14.9,3.18-1.829,6.175-.508,6.972,3.059A11.455,11.455,0,0,1,1008.6,2305.847Z"
                  transform="translate(-908.923 -2276.355)"/>
            <path id="Path_7656" data-name="Path 7656" class="cls-2"
                  d="M934.417,2288.918a2.66,2.66,0,0,0-3,1.236,12.968,12.968,0,0,0-2.743,8.774c.044,1.153.366,2.4,1.644,2.832,1.247.425,2.25-.277,3.1-1.115,2.05-2.023,2.755-4.573,2.816-7.52-.019-.376-.008-.91-.075-1.434C936.005,2290.5,935.68,2289.34,934.417,2288.918Zm-3.188,9.917a12.021,12.021,0,0,1,2.089-6.838A6.682,6.682,0,0,1,931.229,2298.834Z"
                  transform="translate(-887.584 -2262.91)"/>
            <path id="Path_7657" data-name="Path 7657" class="cls-2"
                  d="M957.893,2288.9c-1.54-.458-2.562.63-3.336,1.771a13.283,13.283,0,0,0-2.339,8.054c.04,1.232.293,2.512,1.6,3.008s2.347-.266,3.219-1.147a10.2,10.2,0,0,0,2.741-7.249c0-.337.021-.679,0-1.013C959.662,2290.9,959.5,2289.379,957.893,2288.9Zm-3.08,10.191a12.012,12.012,0,0,1,2.229-7.338A8.608,8.608,0,0,1,954.813,2299.092Z"
                  transform="translate(-862.122 -2262.908)"/>
            <path id="Path_7658" data-name="Path 7658" class="cls-2"
                  d="M927.237,2288.865a2.872,2.872,0,0,0-2.972,1.375,13.11,13.11,0,0,0-2.61,7.663,12.316,12.316,0,0,0,.008,1.3,2.731,2.731,0,0,0,1.444,2.506,2.641,2.641,0,0,0,2.8-.689,5.4,5.4,0,0,0,.753-.672,10.869,10.869,0,0,0,2.356-9.072C928.842,2290.2,928.438,2289.146,927.237,2288.865Zm-2.716,9.892a7.634,7.634,0,0,1,2.04-6.735A9.059,9.059,0,0,1,924.521,2298.756Z"
                  transform="translate(-895.172 -2262.904)"/>
        </g>
    </g>
</svg>
